<?xml version="1.0" encoding="UTF-8"?>
<svg width="1024px" height="1024px" viewBox="0 0 1024 1024" version="1.1" xmlns="http://www.w3.org/2000/svg" xmlns:xlink="http://www.w3.org/1999/xlink">
    <title>lofi-production</title>
    <g id="Page-1" stroke="none" stroke-width="1" fill="none" fill-rule="evenodd">
        <g id="Production" fill-rule="nonzero">
            <g id="tr-bg" transform="translate(91.000000, 112.000000)" fill="#FFFFFF">
                <polygon id="Shape" points="842 252.947368 842 780.879187 450.47 664.625598 0 801 0 234.742823 104.899167 202.805024 104.899167 24.9114833 389.775833 116.572967 774.64 0 774.64 233.465311"></polygon>
            </g>
            <g id="translation-icon-translate-language-svgrepo-com-copy-3" transform="translate(91.000000, 112.000000)" fill="#377177">
                <path d="M182.0825,314.267943 C176.82,307.561005 174.715,303.409091 175.7675,301.812201 C176.469167,300.215311 181.380833,299.576555 189.45,300.215311 C197.519167,300.854067 204.185,301.812201 209.798333,303.089713 C215.060833,304.367225 219.621667,306.283493 223.13,308.519139 C226.638333,310.754785 229.445,313.309809 231.199167,316.822967 C233.304167,320.016746 234.7075,324.16866 236.110833,328.639952 C238.566667,337.582536 237.865,343.650718 234.356667,346.844498 C230.4975,350.038278 225.235,349.399522 218.218333,344.92823 C210.850833,340.456938 204.535833,335.985646 198.9225,331.514354 C192.958333,327.36244 187.345,321.294258 182.0825,314.267943 Z M105.951667,598.833732 C122.791667,592.126794 137.526667,585.419856 150.156667,578.393541 C162.435833,571.686603 173.311667,564.340909 182.784167,556.675837 C191.905833,549.330144 200.325833,541.026316 207.3425,532.083732 C214.359167,523.460526 220.674167,513.559809 226.2875,502.700957 C230.848333,506.533493 235.058333,510.366029 239.619167,513.879187 C243.829167,517.392344 248.39,520.905502 252.950833,524.738038 C257.511667,528.570574 262.774167,532.40311 268.036667,536.874402 C273.299167,541.345694 279.614167,545.816986 286.630833,551.246411 C289.086667,552.843301 291.5425,554.120813 293.998333,554.440191 C296.454167,554.759569 299.9625,554.440191 304.874167,552.523923 C309.435,550.927033 315.399167,548.052632 322.766667,543.58134 C330.134167,539.429426 339.255833,533.680622 350.4825,526.334928 C356.095833,522.82177 358.9025,519.947368 358.551667,517.711722 C358.200833,515.476077 355.043333,514.517943 349.079167,514.837321 C338.203333,515.156699 328.38,515.156699 319.96,514.517943 C311.189167,513.879187 302.418333,512.601675 293.998333,510.046651 C285.578333,507.491627 276.8075,503.978469 267.685833,499.187799 C258.564167,494.397129 248.039167,487.690191 235.76,479.386364 C239.268333,466.930622 242.075,453.836124 244.18,439.783493 C245.2325,431.799043 246.285,426.050239 246.986667,421.898325 C247.688333,418.065789 248.740833,414.233254 250.144167,411.358852 C251.196667,408.803828 251.5475,406.88756 251.898333,405.29067 C252.249167,403.69378 251.5475,402.09689 250.495,400.180622 C249.091667,398.583732 246.986667,396.667464 243.829167,394.751196 C240.671667,392.834928 236.110833,390.279904 230.146667,387.405502 C238.566667,384.5311 248.039167,381.976077 257.8625,379.101675 C267.335,376.227273 277.86,373.352871 288.735833,370.478469 C299.260833,367.604067 304.523333,364.410287 304.874167,360.577751 C305.225,356.745215 301.716667,353.232057 293.6475,349.399522 C288.385,346.844498 283.473333,345.886364 278.561667,346.52512 C273.65,347.163876 267.335,349.399522 259.616667,353.551435 C257.511667,354.828947 253.301667,356.425837 247.688333,358.661483 C241.724167,360.897129 235.058333,363.452153 226.638333,366.645933 C218.218333,369.839713 209.096667,373.033493 199.273333,376.546651 C189.099167,380.059809 178.925,383.572967 168.750833,386.766746 C158.576667,390.279904 148.753333,393.154306 139.9825,395.70933 C130.860833,398.264354 123.844167,400.180622 118.581667,400.819378 C105.25,403.374402 98.2333333,405.929426 97.8825,408.48445 C97.8825,411.039474 103.145,413.594498 113.319167,416.149522 C117.529167,417.107656 121.388333,418.065789 124.195,418.065789 C127.001667,418.385167 130.159167,418.385167 132.965833,418.065789 C135.7725,417.746411 138.579167,417.107656 141.385833,416.4689 C144.1925,415.510766 147.35,414.233254 151.209167,412.955742 C156.8225,410.400718 164.891667,407.526316 175.416667,404.013158 C185.590833,400.819378 198.571667,396.348086 214.71,391.238038 C217.8675,399.861244 219.621667,410.400718 219.621667,422.537081 C219.621667,434.673445 218.218333,448.406699 214.71,464.05622 C210.149167,460.543062 205.2375,456.710526 199.975,452.558612 C194.7125,448.406699 189.800833,444.254785 184.889167,440.102871 C179.275833,435.312201 173.6625,432.118421 168.4,430.521531 C162.786667,428.924641 156.471667,428.924641 149.104167,430.521531 C137.526667,433.395933 131.5625,436.589713 131.913333,440.422249 C131.913333,444.254785 136.474167,446.171053 145.245,446.490431 C148.4025,446.809809 151.56,447.448565 154.7175,448.406699 C157.875,449.364833 161.383333,451.2811 165.944167,454.155502 C170.505,457.029904 176.118333,461.181818 182.433333,466.291866 C188.748333,471.401914 197.168333,478.108852 206.991667,486.412679 C202.781667,495.674641 197.87,504.297847 192.6075,511.962919 C187.345,519.947368 180.679167,527.931818 173.311667,535.277512 C165.593333,542.942584 156.8225,550.607656 146.2975,558.272727 C135.7725,566.257177 123.1425,574.561005 108.4075,583.184211 C93.3216667,592.126794 85.6033333,598.194976 85.6033333,601.069378 C85.9541667,605.221292 92.9708333,603.94378 105.951667,598.833732 Z M842,252.947368 L842,780.879187 L450.47,664.625598 L0,801 L0,234.742823 L104.899167,202.805024 L104.899167,24.9114833 L389.775833,116.572967 L774.64,0 L774.64,233.465311 L842,252.947368 Z M398.8975,153.301435 L41.3983333,261.889952 L41.3983333,747.983254 L398.8975,639.714115 L398.8975,153.301435 L398.8975,153.301435 Z M732.890833,221.328947 L732.890833,52.3779904 L447.663333,138.610048 L732.890833,221.328947 Z M759.554167,636.520335 L652.55,285.523923 L580.629167,265.083732 L472.221667,555.078947 L538.529167,573.922249 L558.8775,514.198565 L670.793333,546.136364 L690.790833,617.357656 L759.554167,636.520335 Z M576.419167,464.417464 L654.304167,486.454545 L616.063333,349.441388 L576.419167,464.417464 Z" id="Shape"></path>
            </g>
        </g>
    </g>
</svg>